<?xml version="1.0" standalone="no"?>
<!DOCTYPE svg PUBLIC "-//W3C//DTD SVG 20010904//EN"
 "http://www.w3.org/TR/2001/REC-SVG-20010904/DTD/svg10.dtd">
<svg version="1.0" xmlns="http://www.w3.org/2000/svg"
 width="160.000000pt" height="160.000000pt" viewBox="0 0 160.000000 160.000000"
 preserveAspectRatio="xMidYMid meet">
<metadata>
Created by potrace 1.11, written by Peter Selinger 2001-2013
</metadata>
<g transform="translate(0.000000,160.000000) scale(0.100000,-0.100000)"
fill="#000000" stroke="none">
<path d="M13 1565 l10 -35 84 0 c67 0 83 3 83 15 0 13 74 15 610 15 536 0 610
-2 610 -15 0 -12 16 -15 83 -15 l82 0 11 35 11 35 -798 0 -797 0 11 -35z"/>
<path d="M30 1496 c0 -40 11 -46 86 -46 43 0 74 4 74 10 0 6 95 10 265 10
l265 0 0 -315 c0 -273 -2 -315 -15 -315 -12 0 -15 19 -15 115 0 70 -4 115 -10
115 -6 0 -10 67 -10 180 l0 180 -311 0 -311 0 6 -22 c3 -13 6 -26 6 -30 0 -12
130 -9 130 2 0 6 80 10 220 10 l220 0 0 -275 c0 -238 -2 -275 -15 -275 -12 0
-15 19 -15 115 0 70 -4 115 -10 115 -6 0 -10 53 -10 140 l0 140 -259 0 -259 0
7 -27 c7 -26 12 -28 64 -31 35 -2 57 1 57 8 0 6 59 10 175 10 l175 0 0 -450 0
-450 260 0 260 0 0 455 0 455 175 0 c147 0 177 -2 181 -15 4 -10 21 -15 53
-15 41 0 49 3 59 25 7 14 12 28 12 30 0 3 -117 5 -260 5 l-260 0 0 -140 c0
-87 -4 -140 -10 -140 -6 0 -10 -45 -10 -115 0 -96 -3 -115 -15 -115 -13 0 -15
37 -15 275 l0 275 220 0 c140 0 220 -4 220 -10 0 -11 130 -14 130 -2 0 4 3 17
6 30 l6 22 -311 0 -311 0 0 -180 c0 -113 -4 -180 -10 -180 -6 0 -10 -45 -10
-115 0 -96 -3 -115 -15 -115 -13 0 -15 42 -15 315 l0 315 265 0 c170 0 265 -4
265 -10 0 -12 150 -14 150 -2 0 4 3 17 6 30 l6 22 -371 0 -371 0 -1 -202 c-2
-323 -11 -462 -30 -466 -14 -2 -17 20 -22 170 -4 95 -7 246 -7 336 l0 162
-370 0 c-313 0 -370 -2 -370 -14z"/>
<path d="M458 1043 l-28 -14 0 -350 0 -349 365 0 365 0 0 353 0 354 -25 11
c-14 7 -30 12 -35 12 -6 0 -10 -45 -10 -104 0 -83 3 -105 15 -110 13 -5 15
-41 15 -241 l0 -235 -320 0 -320 0 0 240 c0 153 4 240 10 240 6 0 10 42 10
105 0 58 -3 105 -7 104 -5 -1 -20 -8 -35 -16z"/>
<path d="M363 989 l-33 -21 0 -359 0 -359 475 0 475 0 0 355 0 355 -32 20
c-18 11 -36 20 -40 20 -5 0 -8 -47 -8 -105 0 -85 3 -107 15 -111 13 -5 15 -42
15 -250 l0 -244 -430 0 -430 0 0 241 c0 206 2 243 15 253 13 9 15 31 13 118
l-3 107 -32 -20z"/>
<path d="M243 923 l-23 -15 0 -369 0 -369 580 0 580 0 2 367 c3 342 2 366 -14
371 -10 2 -18 8 -18 12 0 4 -9 10 -20 13 -19 5 -20 0 -20 -104 0 -90 3 -109
15 -109 13 0 15 -34 15 -250 l0 -250 -540 0 -540 0 0 249 c0 212 2 250 15 255
12 4 15 26 15 111 0 112 -4 119 -47 88z"/>
<path d="M1410 775 c0 -91 3 -114 15 -119 13 -5 15 -43 15 -261 l0 -255 -640
0 -640 0 0 259 c0 221 2 260 15 265 12 4 15 26 15 111 0 58 -2 105 -5 105 -2
0 -20 -8 -40 -17 l-35 -17 0 -378 0 -378 690 0 690 0 0 373 0 373 -40 27 -40
26 0 -114z"/>
<path d="M40 802 c-14 -9 -28 -21 -32 -27 -4 -5 -8 -182 -8 -392 l0 -383 800
0 800 0 0 389 0 389 -40 21 -40 21 0 -104 c0 -80 3 -106 15 -116 13 -10 15
-54 15 -276 l0 -264 -750 0 -750 0 0 264 c0 222 2 266 15 276 12 10 15 36 15
116 0 57 -3 104 -7 103 -5 0 -19 -8 -33 -17z"/>
</g>
</svg>
